<svg width="25" height="25" viewBox="0 0 25 25" fill="none" xmlns="http://www.w3.org/2000/svg">
<path d="M11.974 2.82699C12.1892 2.391 12.8109 2.391 13.026 2.82699L15.8115 8.47087C15.8969 8.644 16.0621 8.764 16.2531 8.79176L22.4815 9.6968C22.9627 9.76671 23.1548 10.358 22.8066 10.6974L18.2997 15.0905C18.1615 15.2253 18.0984 15.4194 18.131 15.6097L19.1949 21.8129C19.2771 22.2921 18.7742 22.6576 18.3438 22.4313L12.773 19.5025C12.6021 19.4127 12.3979 19.4127 12.227 19.5025L6.65621 22.4313C6.22586 22.6576 5.7229 22.2921 5.80508 21.8129L6.86902 15.6097C6.90166 15.4194 6.83857 15.2253 6.70032 15.0905L2.19341 10.6974C1.84526 10.358 2.03737 9.76671 2.51851 9.6968L8.7469 8.79176C8.93796 8.764 9.10313 8.644 9.18857 8.47087L11.974 2.82699Z" fill="#CE82C7" stroke="#CE82C7" stroke-width="2" stroke-linejoin="round"/>
</svg>
