<?xml version="1.0" standalone="no"?>
<!DOCTYPE svg PUBLIC "-//W3C//DTD SVG 20010904//EN"
 "http://www.w3.org/TR/2001/REC-SVG-20010904/DTD/svg10.dtd">
<svg version="1.0" xmlns="http://www.w3.org/2000/svg"
 width="700.000000pt" height="700.000000pt" viewBox="0 0 700.000000 700.000000"
 preserveAspectRatio="xMidYMid meet">
<metadata>
Created by potrace 1.14, written by Peter Selinger 2001-2017
</metadata>
<g transform="translate(0.000000,700.000000) scale(0.100000,-0.100000)"
fill="#000000" stroke="none">
<path d="M3275 6994 c-205 -20 -278 -29 -392 -49 -474 -84 -915 -262 -1318
-530 -874 -582 -1430 -1500 -1547 -2550 -17 -155 -17 -575 0 -730 116 -1049
676 -1972 1547 -2550 478 -317 944 -486 1565 -567 56 -7 207 -12 370 -12 308
0 480 18 743 75 1005 219 1875 884 2348 1794 200 385 308 727 376 1190 25 172
25 698 0 870 -27 182 -45 277 -82 425 -110 441 -313 866 -590 1235 -568 759
-1406 1250 -2345 1375 -147 20 -568 35 -675 24z m582 -1329 c374 -49 725 -191
1019 -411 105 -79 234 -193 234 -206 0 -5 -89 -99 -197 -209 l-197 -200 -55
54 c-195 189 -475 329 -776 389 -158 32 -433 32 -592 0 -213 -43 -425 -131
-606 -254 -132 -90 -324 -284 -415 -421 -129 -194 -211 -393 -254 -618 -20
-110 -21 -144 -25 -932 -3 -513 -8 -815 -14 -812 -14 10 -109 131 -171 220
-188 271 -315 601 -362 943 -18 130 -21 415 -6 542 60 496 280 949 631 1301
322 324 783 554 1214 608 50 6 101 13 115 15 71 10 352 4 457 -9z m-36 -1091
c691 -131 1074 -883 774 -1520 -153 -327 -442 -547 -794 -608 -212 -36 -445
-3 -633 89 -38 19 -74 35 -79 35 -5 0 -9 -255 -9 -599 l0 -599 -93 27 c-128
38 -226 76 -339 133 l-98 48 0 983 c0 572 4 1017 10 1067 14 121 45 231 95
337 59 126 106 193 203 295 158 164 348 269 568 312 96 20 294 19 395 0z
m1252 -2578 l41 -49 -64 -59 c-271 -245 -587 -415 -935 -503 -136 -35 -338
-65 -431 -65 l-54 0 0 284 0 284 83 7 c248 21 503 103 702 225 90 55 209 147
260 199 l39 41 159 -157 c87 -87 177 -180 200 -207z"/>
<path d="M3510 4045 c-417 -94 -567 -617 -264 -919 106 -107 226 -156 379
-156 152 0 274 49 380 155 99 98 165 251 165 385 0 129 -58 274 -146 369 -134
145 -329 208 -514 166z"/>
</g>
</svg>
