<svg xmlns="http://www.w3.org/2000/svg" width="44" height="44" fill="none"><mask id="a" width="44" height="44" x="0" y="0" maskUnits="userSpaceOnUse" style="mask-type:luminance"><path fill="#fff" d="M43.955 0H0v44h43.955V0Z"/></mask><g mask="url(#a)"><path fill="#8D5BE9" d="M21.978 44c12.138 0 21.977-9.85 21.977-22S34.115 0 21.978 0C9.84 0 0 9.85 0 22s9.84 22 21.978 22Z"/><path fill="#fff" fill-rule="evenodd" d="m32.214 12.277-2.569 2.59a9.944 9.944 0 0 0-7.077-2.955c-5.377 0-9.766 4.276-9.997 9.638h-.01v9.793A13.762 13.762 0 0 1 8.927 22c0-7.594 6.108-13.75 13.64-13.75a13.54 13.54 0 0 1 9.646 4.027Zm0 19.446a13.544 13.544 0 0 1-9.423 4.027v-3.663a9.937 9.937 0 0 0 6.854-2.952l2.569 2.587Z" clip-rule="evenodd" opacity=".5"/><path fill="#fff" fill-rule="evenodd" d="M16.045 34.078V21.552h.01c.192-3.582 3.134-6.427 6.736-6.427 3.725 0 6.746 3.044 6.746 6.8s-3.02 6.8-6.745 6.8a6.675 6.675 0 0 1-3.41-.93v7.577a13.487 13.487 0 0 1-3.337-1.293v-.001Zm6.746-8.715a3.418 3.418 0 0 0 3.155-2.125c.17-.416.257-.862.256-1.312 0-1.9-1.528-3.438-3.411-3.438a3.42 3.42 0 0 0-3.41 3.438c0 1.897 1.527 3.437 3.41 3.437Z" clip-rule="evenodd"/></g></svg>