<svg width="48" height="48" viewBox="0 0 48 48" fill="none" xmlns="http://www.w3.org/2000/svg">
<path d="M20.008 13.0073L21.8023 10.4288C21.9892 10.1602 22.2958 10 22.6231 10H25.3774C25.7035 10 26.0091 10.159 26.1963 10.426L27.9729 12.9604M20.008 13.0073C19.5456 13.6671 18.7768 13.9904 17.9609 13.9327M20.008 13.0073C19.5433 13.6655 18.7768 13.9931 17.9609 13.9327M17.9609 13.9327L14.7918 13.7338C14.4709 13.7136 14.16 13.849 13.956 14.0975L12.2115 16.2237C11.9953 16.4872 11.9282 16.8427 12.0334 17.1669L12.9642 20.0334M12.9642 20.0334C13.0828 20.4178 13.0979 20.8297 13.0131 21.2187M12.9642 20.0334C13.0845 20.4171 13.0991 20.8282 13.0125 21.2227M13.0131 21.2187C12.9271 21.6031 12.7428 21.966 12.4691 22.2599M13.0131 21.2187L13.0125 21.2227M12.4691 22.2599L10.3657 24.5221C10.1373 24.7678 10.0473 25.1116 10.126 25.4376L10.7466 28.0093C10.825 28.3343 11.0607 28.5986 11.3746 28.7137L14.2645 29.7729C14.6444 29.9199 14.9725 30.1588 15.2209 30.4598M12.4691 22.2599C12.7445 21.9684 12.9271 21.6066 13.0125 21.2227M15.2209 30.4598C15.4676 30.7617 15.6356 31.126 15.7008 31.5205M15.2209 30.4598C15.4699 30.7617 15.6384 31.125 15.7008 31.5205M15.2209 30.4598L15.217 30.4555C15.2007 30.4358 15.1833 30.4152 15.1664 30.396M15.7008 31.5205L16.1928 34.5423C16.246 34.8695 16.458 35.149 16.7586 35.2886L19.2439 36.4425C19.535 36.5776 19.8733 36.5649 20.1533 36.4082L22.8537 34.8974M22.8537 34.8974C23.2071 34.6989 23.6016 34.5993 23.9961 34.5989M22.8537 34.8974C22.9936 34.8178 23.1402 34.7543 23.2908 34.7066C23.5195 34.6341 23.7578 34.5984 23.9961 34.5989M23.9961 34.5989C24.2012 34.5993 24.4063 34.6264 24.6063 34.68C24.7923 34.7298 24.9733 34.8024 25.1447 34.8974M23.9961 34.5989C24.3922 34.5983 24.789 34.6979 25.1447 34.8974M25.1447 34.8974L27.9652 36.4243C28.2465 36.5766 28.5836 36.5851 28.8722 36.4473L31.3452 35.2661C31.6448 35.123 31.8539 34.8406 31.9032 34.5122L32.3447 31.5706M32.3447 31.5706C32.4071 31.1739 32.5729 30.8069 32.819 30.5024M32.3447 31.5706C32.4048 31.1731 32.5717 30.8065 32.819 30.5024M32.819 30.5024C33.0634 30.201 33.3877 29.9609 33.7653 29.8124M32.819 30.5024C33.0629 30.1998 33.386 29.9591 33.7653 29.8124M33.7653 29.8124L36.68 28.6701C36.988 28.5494 37.2163 28.2842 37.29 27.9617L37.8826 25.3673C37.9561 25.0457 37.8662 24.7085 37.6424 24.4661L35.5297 22.1786M35.5297 22.1786C35.251 21.8837 35.0566 21.5314 34.9622 21.157M35.5297 22.1786C35.3988 22.0409 35.2864 21.8903 35.1948 21.7306C35.0903 21.5493 35.0122 21.3563 34.9622 21.157M34.9622 21.157C34.8695 20.7852 34.8751 20.3913 34.9925 20.01L35.9083 17.0746C36.0087 16.7528 35.9402 16.4021 35.7261 16.1417L34.0189 14.0652C33.8126 13.8143 33.4974 13.6793 33.1734 13.703L30.0368 13.9327M30.0368 13.9327C29.6311 13.9614 29.2322 13.8841 28.877 13.7178M30.0368 13.9327C29.6306 13.963 29.2322 13.8851 28.877 13.7178M28.877 13.7178C28.5196 13.5495 28.2061 13.2905 27.9729 12.9604M28.877 13.7178C28.5191 13.5501 28.2049 13.2918 27.9729 12.9604M13.0125 21.2227L13.0136 21.2168M28.5146 23.3475C28.5146 25.8341 26.4534 27.8498 23.9112 27.8498C21.369 27.8498 19.3079 25.8341 19.3079 23.3475C19.3079 20.8609 21.369 18.8451 23.9112 18.8451C26.4534 18.8451 28.5146 20.8609 28.5146 23.3475Z" stroke="#8D5BE9" stroke-width="2"/>
<circle cx="24" cy="24" r="23" stroke="#8D5BE9" stroke-width="2"/>
</svg>
